# xmcd
#
# Track frame offsets:
#	150
#	20830
#	34995
#	49278
#	67443
#	83693
#	98910
#	116560
#	136422
#	151447
#	173492
#	203309
#	221451
#	238991
#	258768
#
# Disc length: 3803 seconds
#
# Revision: 0
# Processed by: cddbd v1.5.2PL0 Copyright (c) Steve Scherf et al.
# Submitted via: audiograbber 1.83.01
#
DISCID=d30ed90f
DTITLE=Sound Choice - Country Hits - Vol. 154 SC8774
DYEAR=1900
DGENRE=Karaoke
TTITLE0=Tift Merritt - Virginia, No One Can Warn You
TTITLE1=Daryle Singletary - That's Why I Sing This Way
TTITLE2=Kevin Denney - Cadillac Tears
TTITLE3=Rascal Flatts - These Days
TTITLE4=Danni Leigh - House Of Pain
TTITLE5=Carolyn Dawn Johnson - One Day Closer To You
TTITLE6=Travis Tritt - Strong Enough To Be Your Man
TTITLE7=Tommy Shane Steiner - Tell Me Where It Hurts
TTITLE8=Alison Krauss - Sitting In The Window Of My Room
TTITLE9=Kenny Chesney - A Lot Of Things Different
TTITLE10=Dolly Parton - Stairway To Heaven
TTITLE11=Keith Urban - Somebody Like You
TTITLE12=Little Big Town - Everything Changes
TTITLE13=Willie Nelson - Maria (Shut Up and Kiss Me)
TTITLE14=Rebecca Lynn Howard - I Don't Paint Myself Into Corners
EXTD=
EXTT0=
EXTT1=
EXTT2=
EXTT3=
EXTT4=
EXTT5=
EXTT6=
EXTT7=
EXTT8=
EXTT9=
EXTT10=
EXTT11=
EXTT12=
EXTT13=
EXTT14=
PLAYORDER=
